{"title":"The Hustler [1961] 720p BRRip H264 AC3 - CODY","uid":6861721,"size":2274057631,"categoryP":"video","categoryS":"hd___movies","magnet":"?xt=urn:btih:ac06616c7bffc1cdd4926bbe4ab15d0c4cc06c71&amp;dn=The+Hustler+%5B1961%5D+720p+BRRip+H264+AC3+-+CODY&amp;tr=udp%3A%2F%2Ftracker.openbittorrent.com%3A80&amp;tr=udp%3A%2F%2Fopen.demonii.com%3A1337&amp;tr=udp%3A%2F%2Ftracker.coppersurfer.tk%3A6969&amp;tr=udp%3A%2F%2Fexodus.desync.com%3A6969","seeders":0,"leechers":1,"uploader":"CODYBOSS1969","files":5,"time":1322925372,"description":"General\nComplete name                            : The Hustler [1961] 720p BRRip H264 AC3 - CODY.mp4\nFormat                                   : MPEG-4\nFormat profile                           : Base Media\nCodec ID                                 : isom\nFile size                                : 2.12 GiB\nDuration                                 : 2h 14mn\nOverall bit rate                         : 2 250 Kbps\nEncoded date                             : UTC 2011-12-02 11:53:12\nTagged date                              : UTC 2011-12-02 11:53:12\n\nVideo\nID                                       : 1\nFormat                                   : AVC\nFormat/Info                              : Advanced Video Codec\nFormat profile                           : &lt;a class=&quot;__cf_email__&quot; href=&quot;/cdn-cgi/l/email-protection&quot; data-cfemail=&quot;b8f0d1dfd0f8f48c9689&quot;&gt;[email&amp;#160;protected]&lt;/a&gt;&lt;script cf-hash='f9e31' type=&quot;text/javascript&quot;&gt;\n/* &lt;![CDATA[ */!function(){try{var t=&quot;currentScript&quot;in document?document.currentScript:function(){for(var t=document.getElementsByTagName(&quot;script&quot;),e=t.length;e--;)if(t[e].getAttribute(&quot;cf-hash&quot;))return t[e]}();if(t&amp;&amp;t.previousSibling){var e,r,n,i,c=t.previousSibling,a=c.getAttribute(&quot;data-cfemail&quot;);if(a){for(e=&quot;&quot;,r=parseInt(a.substr(0,2),16),n=2;a.length-n;n+=2)i=parseInt(a.substr(n,2),16)^r,e+=String.fromCharCode(i);e=document.createTextNode(e),c.parentNode.replaceChild(e,c)}}}catch(u){}}();/* ]]&gt; */&lt;/script&gt;\nFormat settings, CABAC                   : Yes\nFormat settings, ReFrames                : 4 frames\nCodec ID                                 : avc1\nCodec ID/Info                            : Advanced Video Coding\nDuration                                 : 2h 14mn\nBit rate                                 : 1 800 Kbps\nMaximum bit rate                         : 14.1 Mbps\nWidth                                    : 1 280 pixels\nHeight                                   : 544 pixels\nDisplay aspect ratio                     : 2.35:1\nFrame rate mode                          : Constant\nFrame rate                               : 23.976 fps\nColor space                              : YUV\nChroma subsampling                       : 4:2:0\nBit depth                                : 8 bits\nScan type                                : Progressive\nBits/(Pixel*Frame)                       : 0.108\nStream size                              : 1.69 GiB (80%)\nWriting library                          : x264 core 119 r2106 07efeb4\nEncoding settings                        : cabac=1 / ref=4 / deblock=1:0:0 / \nanalyse=0x3:0x113 / me=umh / subme=9 / psy=1 / psy_rd=1.00:1.00 / mixed_ref=1 /\n me_range=16 / chroma_me=1 / trellis=2 / 8x8dct=1 / cqm=0 / deadzone=21,11 /\n fast_pskip=0 / chroma_qp_offset=-6 / threads=12 / sliced_threads=0 /\n nr=0 / decimate=1 / interlaced=0 / bluray_compat=0 / constrained_intra=0 /\n bframes=3 / b_pyramid=2 / b_adapt=2 / b_bias=0 / direct=3 / weightb=1 / \nopen_gop=0 / weightp=2 / keyint=250 / keyint_min=23 / scenecut=40 / \nintra_refresh=0 / rc_lookahead=50 / rc=2pass / mbtree=1 / bitrate=1800 / \nratetol=1.0 / qcomp=0.85 / qpmin=10 / qpmax=51 / qpstep=4 / cplxblur=20.0 / \nqblur=0.5 / vbv_maxrate=40000 / vbv_bufsize=40000 / nal_hrd=none /\nip_ratio=1.40 / aq=1:1.00\nEncoded date                             : UTC 2011-12-02 11:53:12\nTagged date                              : UTC 2011-12-02 11:53:29\n\nAudio\nID                                       : 2\nFormat                                   : AC-3\nFormat/Info                              : Audio Coding 3\nMode extension                           : CM (complete main)\nCodec ID                                 : ac-3\nDuration                                 : 2h 14mn\nBit rate mode                            : Constant\nBit rate                                 : 448 Kbps\nChannel(s)                               : 6 channels\nChannel positions                        : Front: L C R, Side: L R, LFE\nSampling rate                            : 48.0 KHz\nBit depth                                : 16 bits\nCompression mode                         : Lossy\nStream size                              : 432 MiB (20%)\nEncoded date                             : UTC 2011-12-02 11:53:25\nTagged date                              : UTC 2011-12-02 11:53:29\n\n\n\n\nIMDB link:                                &lt;a href=&quot; http://www.imdb.com/title/tt0054997/&quot; rel=&quot;nofollow&quot; target=&quot;_NEW&quot;&gt; http://www.imdb.com/title/tt0054997/&lt;/a&gt;\n\n\n\n\nSubtitles included                       : Romanian\n\n\n\n\nPlease seed at least 1,5:1. This way this torrent has a chance to survive!\n\n\n\n\nThanks. Enjoy !","torrent":{"xt":"urn:btih:ac06616c7bffc1cdd4926bbe4ab15d0c4cc06c71","amp;dn":"The+Hustler+%5B1961%5D+720p+BRRip+H264+AC3+-+CODY","amp;tr":["udp%3A%2F%2Ftracker.openbittorrent.com%3A80","udp%3A%2F%2Fopen.demonii.com%3A1337","udp%3A%2F%2Ftracker.coppersurfer.tk%3A6969","udp%3A%2F%2Fexodus.desync.com%3A6969"],"infoHash":"ac06616c7bffc1cdd4926bbe4ab15d0c4cc06c71","infoHashBuffer":{"type":"Buffer","data":[172,6,97,108,123,255,193,205,212,146,107,190,74,177,93,12,76,192,108,113]},"announce":[],"urlList":[]}}